<?xml version="1.0" standalone="no"?>
<!DOCTYPE svg PUBLIC "-//W3C//DTD SVG 20010904//EN"
 "http://www.w3.org/TR/2001/REC-SVG-20010904/DTD/svg10.dtd">
<svg version="1.0" xmlns="http://www.w3.org/2000/svg"
 width="1556.000000pt" height="1556.000000pt" viewBox="0 0 1556.000000 1556.000000"
 preserveAspectRatio="xMidYMid meet">
<metadata>
Created by potrace 1.14, written by Peter Selinger 2001-2017
</metadata>
<g transform="translate(0.000000,1556.000000) scale(0.100000,-0.100000)"
fill="#000000" stroke="none">
<path d="M6849 11106 c-2 -2 -56 -7 -119 -10 -63 -4 -133 -9 -155 -11 -95 -10
-259 -32 -330 -45 -27 -5 -63 -11 -80 -14 -26 -4 -90 -17 -150 -30 -160 -35
-456 -124 -552 -167 -24 -11 -45 -19 -48 -19 -4 0 -26 -9 -51 -20 -24 -11 -65
-29 -91 -41 -86 -38 -283 -141 -325 -170 -14 -11 -31 -19 -36 -19 -6 0 -12 -3
-14 -8 -1 -4 -34 -27 -71 -51 -58 -38 -84 -56 -152 -108 -78 -61 -106 -83
-140 -113 -65 -57 -217 -211 -265 -269 -25 -29 -50 -59 -56 -65 -62 -66 -191
-276 -264 -429 -99 -207 -151 -374 -195 -622 -21 -123 -29 -538 -12 -680 5
-38 10 -83 12 -100 20 -171 104 -461 178 -612 47 -95 162 -282 186 -303 3 -3
29 -32 56 -65 104 -124 298 -301 455 -418 216 -158 441 -278 724 -384 118 -44
464 -163 469 -161 1 0 54 -15 117 -35 108 -33 496 -142 545 -153 6 -1 30 -7
55 -14 25 -7 52 -13 60 -15 44 -9 379 -98 470 -125 58 -17 129 -38 159 -46
142 -38 496 -158 578 -195 24 -10 47 -19 52 -19 8 0 44 -15 171 -72 301 -134
428 -239 510 -421 39 -87 51 -156 49 -277 -4 -279 -137 -488 -424 -668 -150
-93 -382 -164 -622 -190 -143 -15 -525 -7 -613 13 -14 3 -59 12 -100 20 -77
14 -238 63 -300 92 -443 202 -712 510 -794 910 l-21 103 -1095 -2 c-723 -2
-1095 -6 -1094 -13 1 -5 5 -44 8 -85 8 -85 12 -122 20 -165 3 -16 8 -46 11
-65 18 -113 70 -300 121 -440 34 -93 171 -381 204 -430 10 -14 43 -65 75 -115
151 -234 352 -452 626 -680 74 -63 313 -231 384 -271 11 -6 65 -37 120 -69
312 -179 667 -314 1060 -403 175 -40 368 -73 520 -88 33 -3 71 -7 85 -10 159
-26 849 -26 1075 1 22 2 65 7 95 10 30 3 82 10 115 15 33 5 76 12 95 14 160
21 396 76 610 144 63 19 117 36 120 37 6 2 5 2 153 62 288 116 574 286 804
479 103 86 259 247 333 344 19 25 38 47 41 50 15 13 181 273 213 334 94 177
196 463 212 594 3 19 6 38 9 42 2 3 7 29 10 56 4 27 8 60 10 74 18 106 25 341
14 470 -11 133 -21 224 -25 231 -2 3 -6 24 -8 46 -9 66 -43 204 -77 309 -18
54 -33 101 -34 104 -5 16 -30 71 -71 155 -40 83 -163 280 -183 295 -4 3 -36
41 -71 85 -85 105 -267 286 -376 375 -89 73 -286 210 -300 210 -4 0 -15 6 -23
14 -22 20 -238 127 -346 171 -240 100 -729 264 -1005 339 -30 8 -98 27 -150
41 -102 28 -475 125 -500 130 -56 11 -506 144 -655 193 -502 167 -713 280
-855 458 -99 124 -148 274 -145 444 2 120 12 178 42 260 121 321 442 503 968
547 139 11 499 4 524 -11 3 -2 28 -7 55 -10 27 -4 52 -9 55 -11 3 -1 22 -6 41
-9 163 -25 396 -138 555 -267 243 -196 393 -458 421 -735 4 -35 12 -64 18 -65
34 -3 2053 -4 2063 -1 13 4 11 39 -14 222 -19 148 -19 147 -32 211 -6 30 -13
63 -15 75 -42 219 -172 567 -295 789 -132 239 -336 494 -547 685 -33 31 -226
187 -274 223 -57 42 -110 77 -118 77 -5 0 -16 7 -23 16 -7 9 -22 20 -34 25
-11 5 -38 20 -60 33 -90 56 -299 157 -430 209 -135 53 -341 121 -397 131 -15
2 -31 7 -36 10 -11 7 -287 64 -347 71 -27 3 -57 8 -65 11 -8 2 -40 6 -70 9
-30 4 -66 8 -80 11 -14 2 -56 7 -95 10 -38 3 -86 8 -105 10 -44 6 -695 15
-701 10z"/>
<path d="M11198 3905 c-2 -2 -29 -6 -61 -9 -251 -29 -495 -203 -611 -435 -160
-319 -101 -685 149 -936 110 -111 257 -193 390 -220 22 -5 47 -10 55 -12 8 -2
53 -5 100 -6 413 -16 775 293 828 704 25 197 -20 385 -131 554 -53 81 -169
191 -257 243 -83 50 -222 99 -301 107 -81 8 -158 13 -161 10z"/>
</g>
</svg>
