<svg width="15" height="16" viewBox="0 0 15 16" fill="none" xmlns="http://www.w3.org/2000/svg">
<path d="M1.66667 15.5C1.20833 15.5 0.815972 15.3368 0.489583 15.0104C0.163194 14.684 0 14.2917 0 13.8333V5.5C0 5.04167 0.163194 4.64931 0.489583 4.32292C0.815972 3.99653 1.20833 3.83333 1.66667 3.83333H3.33333V2.16667C3.33333 1.70833 3.49653 1.31597 3.82292 0.989583C4.14931 0.663194 4.54167 0.5 5 0.5H10C10.4583 0.5 10.8507 0.663194 11.1771 0.989583C11.5035 1.31597 11.6667 1.70833 11.6667 2.16667V7.16667H13.3333C13.7917 7.16667 14.184 7.32986 14.5104 7.65625C14.8368 7.98264 15 8.375 15 8.83333V13.8333C15 14.2917 14.8368 14.684 14.5104 15.0104C14.184 15.3368 13.7917 15.5 13.3333 15.5H8.33333V12.1667H6.66667V15.5H1.66667ZM1.66667 13.8333H3.33333V12.1667H1.66667V13.8333ZM1.66667 10.5H3.33333V8.83333H1.66667V10.5ZM1.66667 7.16667H3.33333V5.5H1.66667V7.16667ZM5 10.5H6.66667V8.83333H5V10.5ZM5 7.16667H6.66667V5.5H5V7.16667ZM5 3.83333H6.66667V2.16667H5V3.83333ZM8.33333 10.5H10V8.83333H8.33333V10.5ZM8.33333 7.16667H10V5.5H8.33333V7.16667ZM8.33333 3.83333H10V2.16667H8.33333V3.83333ZM11.6667 13.8333H13.3333V12.1667H11.6667V13.8333ZM11.6667 10.5H13.3333V8.83333H11.6667V10.5Z" fill="#858185"/>
</svg>
