<svg width="21" height="20" viewBox="0 0 21 20" fill="none" xmlns="http://www.w3.org/2000/svg">
<g id="Component 2">
<mask id="mask0_501_5266" style="mask-type:alpha" maskUnits="userSpaceOnUse" x="0" y="0" width="21" height="20">
<rect id="Bounding box" x="0.5" width="20" height="20" fill="#D9D9D9"/>
</mask>
<g mask="url(#mask0_501_5266)">
<path id="west" d="M4.96954 10.6171H17.7995C17.9766 10.6171 18.1251 10.5572 18.245 10.4375C18.3647 10.3176 18.4245 10.1691 18.4245 9.99185C18.4245 9.81477 18.3647 9.66636 18.245 9.54664C18.1251 9.42706 17.9766 9.36727 17.7995 9.36727H4.96142L8.57538 5.7406C8.68885 5.62657 8.74823 5.484 8.7535 5.31289C8.75864 5.14178 8.69927 4.99379 8.57538 4.86893C8.46177 4.75449 8.31718 4.69727 8.14163 4.69727C7.96593 4.69727 7.82045 4.75497 7.70517 4.87039L3.11059 9.46497C3.03253 9.54289 2.97753 9.62553 2.94559 9.71289C2.9135 9.80011 2.89746 9.89359 2.89746 9.99331C2.89746 10.093 2.91357 10.1878 2.94579 10.2775C2.97816 10.3672 3.03309 10.4505 3.11059 10.5275L7.70517 15.1221C7.8192 15.2373 7.96177 15.295 8.13288 15.295C8.30385 15.295 8.45135 15.2373 8.57538 15.1221C8.70454 14.998 8.76781 14.8495 8.76517 14.6764C8.76253 14.5034 8.69927 14.3549 8.57538 14.231L4.96954 10.6171Z" fill="#800080"/>
</g>
</g>
</svg>
