<svg width="24" height="24" viewBox="0 0 24 24" fill="none" xmlns="http://www.w3.org/2000/svg">
<g id="Component 2">
<mask id="mask0_338_2233" style="mask-type:alpha" maskUnits="userSpaceOnUse" x="0" y="0" width="24" height="24">
<rect id="Bounding box" width="24" height="24" fill="#D9D9D9"/>
</mask>
<g mask="url(#mask0_338_2233)">
<path id="east" d="M18.6465 12.7405H3.24072C3.02822 12.7405 2.85006 12.6686 2.70622 12.525C2.56256 12.3811 2.49072 12.2029 2.49072 11.9902C2.49072 11.7777 2.56256 11.5996 2.70622 11.456C2.85006 11.3125 3.02822 11.2407 3.24072 11.2407H18.6465L14.3097 6.88872C14.1736 6.75188 14.1023 6.5808 14.096 6.37547C14.0898 6.17014 14.1611 5.99255 14.3097 5.84272C14.4461 5.70539 14.6196 5.63672 14.8302 5.63672C15.0411 5.63672 15.2156 5.70597 15.354 5.84447L20.8675 11.358C20.9611 11.4515 21.0271 11.5506 21.0655 11.6555C21.104 11.7601 21.1232 11.8723 21.1232 11.992C21.1232 12.1116 21.1039 12.2253 21.0652 12.333C21.0264 12.4406 20.9605 12.5406 20.8675 12.633L15.354 18.1465C15.2171 18.2848 15.0461 18.354 14.8407 18.354C14.6356 18.354 14.4586 18.2848 14.3097 18.1465C14.1547 17.9976 14.0788 17.8194 14.082 17.6117C14.0851 17.4041 14.1611 17.2259 14.3097 17.0772L18.6465 12.7405Z" fill="#800080"/>
</g>
</g>
</svg>
