<svg width="24" height="24" viewBox="0 0 24 24" fill="none" xmlns="http://www.w3.org/2000/svg">
<g id="Component 2">
<mask id="mask0_403_3933" style="mask-type:alpha" maskUnits="userSpaceOnUse" x="0" y="0" width="24" height="24">
<rect id="Bounding box" width="24" height="24" fill="#D9D9D9"/>
</mask>
<g mask="url(#mask0_403_3933)">
<path id="east" d="M18.646 12.7405H3.24023C3.02773 12.7405 2.84957 12.6686 2.70573 12.525C2.56207 12.3811 2.49023 12.2029 2.49023 11.9902C2.49023 11.7777 2.56207 11.5996 2.70573 11.456C2.84957 11.3125 3.02773 11.2407 3.24023 11.2407H18.646L14.3092 6.88872C14.1731 6.75188 14.1018 6.5808 14.0955 6.37547C14.0893 6.17014 14.1606 5.99255 14.3092 5.84272C14.4456 5.70539 14.6191 5.63672 14.8297 5.63672C15.0406 5.63672 15.2152 5.70597 15.3535 5.84447L20.867 11.358C20.9607 11.4515 21.0267 11.5506 21.065 11.6555C21.1035 11.7601 21.1227 11.8723 21.1227 11.992C21.1227 12.1116 21.1034 12.2253 21.0647 12.333C21.0259 12.4406 20.96 12.5406 20.867 12.633L15.3535 18.1465C15.2167 18.2848 15.0456 18.354 14.8402 18.354C14.6351 18.354 14.4581 18.2848 14.3092 18.1465C14.1542 17.9976 14.0783 17.8194 14.0815 17.6117C14.0847 17.4041 14.1606 17.2259 14.3092 17.0772L18.646 12.7405Z" fill="#4E474E"/>
</g>
</g>
</svg>
