<svg width="11" height="18" viewBox="0 0 11 18" fill="none" xmlns="http://www.w3.org/2000/svg">
<path d="M5.5 17.3333C4.02778 17.3333 2.82639 17.1007 1.89583 16.6354C0.965278 16.1701 0.5 15.5694 0.5 14.8333C0.5 14.3472 0.701389 13.9236 1.10417 13.5625C1.50694 13.2013 2.0625 12.9166 2.77083 12.7083L3.25 14.2916C3.01389 14.3611 2.79861 14.4479 2.60417 14.552C2.40972 14.6562 2.27778 14.75 2.20833 14.8333C2.38889 15.0555 2.80556 15.25 3.45833 15.4166C4.11111 15.5833 4.79167 15.6666 5.5 15.6666C6.20833 15.6666 6.89236 15.5833 7.55208 15.4166C8.21181 15.25 8.63194 15.0555 8.8125 14.8333C8.74306 14.75 8.61111 14.6562 8.41667 14.552C8.22222 14.4479 8.00694 14.3611 7.77083 14.2916L8.25 12.7083C8.95833 12.9166 9.51042 13.2013 9.90625 13.5625C10.3021 13.9236 10.5 14.3472 10.5 14.8333C10.5 15.5694 10.0347 16.1701 9.10417 16.6354C8.17361 17.1007 6.97222 17.3333 5.5 17.3333ZM5.5 11.7708C5.75 11.3125 6.01389 10.8923 6.29167 10.5104C6.56944 10.1284 6.84028 9.76385 7.10417 9.41663C7.61806 8.74996 8.02778 8.14927 8.33333 7.61454C8.63889 7.07982 8.79167 6.41663 8.79167 5.62496C8.79167 4.70829 8.47222 3.93051 7.83333 3.29163C7.19444 2.65274 6.41667 2.33329 5.5 2.33329C4.58333 2.33329 3.80556 2.65274 3.16667 3.29163C2.52778 3.93051 2.20833 4.70829 2.20833 5.62496C2.20833 6.41663 2.36111 7.07982 2.66667 7.61454C2.97222 8.14927 3.38194 8.74996 3.89583 9.41663C4.15972 9.76385 4.43056 10.1284 4.70833 10.5104C4.98611 10.8923 5.25 11.3125 5.5 11.7708ZM5.5 14.8333C5.34722 14.8333 5.20833 14.7882 5.08333 14.6979C4.95833 14.6076 4.86806 14.4861 4.8125 14.3333C4.49306 13.3472 4.09028 12.5208 3.60417 11.8541C3.11806 11.1875 2.64583 10.5486 2.1875 9.93746C1.74306 9.32635 1.35764 8.6944 1.03125 8.04163C0.704861 7.38885 0.541667 6.58329 0.541667 5.62496C0.541667 4.23607 1.02083 3.06246 1.97917 2.10413C2.9375 1.14579 4.11111 0.666626 5.5 0.666626C6.88889 0.666626 8.0625 1.14579 9.02083 2.10413C9.97917 3.06246 10.4583 4.23607 10.4583 5.62496C10.4583 6.58329 10.2986 7.38885 9.97917 8.04163C9.65972 8.6944 9.27083 9.32635 8.8125 9.93746C8.36806 10.5486 7.89931 11.1875 7.40625 11.8541C6.91319 12.5208 6.50694 13.3472 6.1875 14.3333C6.13194 14.4861 6.04167 14.6076 5.91667 14.6979C5.79167 14.7882 5.65278 14.8333 5.5 14.8333ZM5.5 7.39579C5.98611 7.39579 6.40278 7.22218 6.75 6.87496C7.09722 6.52774 7.27083 6.11107 7.27083 5.62496C7.27083 5.13885 7.09722 4.72218 6.75 4.37496C6.40278 4.02774 5.98611 3.85413 5.5 3.85413C5.01389 3.85413 4.59722 4.02774 4.25 4.37496C3.90278 4.72218 3.72917 5.13885 3.72917 5.62496C3.72917 6.11107 3.90278 6.52774 4.25 6.87496C4.59722 7.22218 5.01389 7.39579 5.5 7.39579Z" fill="#858185"/>
</svg>
