<svg width="15" height="15" viewBox="0 0 15 15" fill="none" xmlns="http://www.w3.org/2000/svg">
<path d="M7.50016 10.4791C7.38905 10.4791 7.28488 10.4617 7.18766 10.427C7.09044 10.3923 7.00016 10.3333 6.91683 10.2499L3.91683 7.24992C3.75016 7.08325 3.6703 6.88881 3.67725 6.66658C3.68419 6.44436 3.76405 6.24992 3.91683 6.08325C4.0835 5.91659 4.28141 5.82978 4.51058 5.82284C4.73975 5.81589 4.93766 5.89575 5.10433 6.06242L6.66683 7.62492V1.66659C6.66683 1.43047 6.74669 1.23256 6.90641 1.07284C7.06613 0.913113 7.26405 0.833252 7.50016 0.833252C7.73627 0.833252 7.93419 0.913113 8.09391 1.07284C8.25364 1.23256 8.3335 1.43047 8.3335 1.66659V7.62492L9.896 6.06242C10.0627 5.89575 10.2606 5.81589 10.4897 5.82284C10.7189 5.82978 10.9168 5.91659 11.0835 6.08325C11.2363 6.24992 11.3161 6.44436 11.3231 6.66658C11.33 6.88881 11.2502 7.08325 11.0835 7.24992L8.0835 10.2499C8.00016 10.3333 7.90988 10.3923 7.81266 10.427C7.71544 10.4617 7.61127 10.4791 7.50016 10.4791ZM2.50016 14.1666C2.04183 14.1666 1.64947 14.0034 1.32308 13.677C0.996691 13.3506 0.833496 12.9583 0.833496 12.4999V10.8333C0.833496 10.5971 0.913357 10.3992 1.07308 10.2395C1.2328 10.0798 1.43072 9.99992 1.66683 9.99992C1.90294 9.99992 2.10086 10.0798 2.26058 10.2395C2.4203 10.3992 2.50016 10.5971 2.50016 10.8333V12.4999H12.5002V10.8333C12.5002 10.5971 12.58 10.3992 12.7397 10.2395C12.8995 10.0798 13.0974 9.99992 13.3335 9.99992C13.5696 9.99992 13.7675 10.0798 13.9272 10.2395C14.087 10.3992 14.1668 10.5971 14.1668 10.8333V12.4999C14.1668 12.9583 14.0036 13.3506 13.6772 13.677C13.3509 14.0034 12.9585 14.1666 12.5002 14.1666H2.50016Z" fill="white"/>
</svg>
