<svg width="24" height="24" viewBox="0 0 24 24" fill="none" xmlns="http://www.w3.org/2000/svg">
<g id="Component 2">
<mask id="mask0_559_867" style="mask-type:alpha" maskUnits="userSpaceOnUse" x="0" y="0" width="24" height="24">
<rect id="Bounding box" width="24" height="24" fill="#D9D9D9"/>
</mask>
<g mask="url(#mask0_559_867)">
<path id="arrow_circle_down" d="M11.25 12.854L9.91725 11.5213C9.77875 11.3828 9.60633 11.3135 9.4 11.3135C9.19367 11.3135 9.02125 11.3828 8.88275 11.5213C8.74425 11.6596 8.675 11.8341 8.675 12.0448C8.675 12.2556 8.74425 12.4291 8.88275 12.5652L11.377 15.0595C11.5577 15.2403 11.7685 15.3307 12.0095 15.3307C12.2507 15.3307 12.4616 15.2403 12.6423 15.0595L15.1365 12.5652C15.275 12.4291 15.3443 12.2556 15.3443 12.0448C15.3443 11.8341 15.275 11.6596 15.1365 11.5213C14.998 11.3828 14.8234 11.3135 14.6128 11.3135C14.4021 11.3135 14.2286 11.3828 14.0922 11.5213L12.7595 12.854V9.048C12.7595 8.8355 12.6877 8.65742 12.544 8.51375C12.4002 8.36992 12.2219 8.298 12.0092 8.298C11.7968 8.298 11.6171 8.36992 11.4703 8.51375C11.3234 8.65742 11.25 8.8355 11.25 9.048V12.854ZM12.0017 21.5C10.6877 21.5 9.45267 21.2507 8.2965 20.752C7.14033 20.2533 6.13467 19.5766 5.2795 18.7218C4.42433 17.8669 3.74725 16.8617 3.24825 15.706C2.74942 14.5503 2.5 13.3156 2.5 12.0017C2.5 10.6877 2.74933 9.45267 3.248 8.2965C3.74667 7.14033 4.42342 6.13467 5.27825 5.2795C6.13308 4.42433 7.13833 3.74725 8.294 3.24825C9.44967 2.74942 10.6844 2.5 11.9983 2.5C13.3123 2.5 14.5473 2.74933 15.7035 3.248C16.8597 3.74667 17.8653 4.42342 18.7205 5.27825C19.5757 6.13308 20.2528 7.13833 20.7518 8.294C21.2506 9.44967 21.5 10.6844 21.5 11.9983C21.5 13.3123 21.2507 14.5473 20.752 15.7035C20.2533 16.8597 19.5766 17.8653 18.7218 18.7205C17.8669 19.5757 16.8617 20.2528 15.706 20.7518C14.5503 21.2506 13.3156 21.5 12.0017 21.5ZM12 20C14.2333 20 16.125 19.225 17.675 17.675C19.225 16.125 20 14.2333 20 12C20 9.76667 19.225 7.875 17.675 6.325C16.125 4.775 14.2333 4 12 4C9.76667 4 7.875 4.775 6.325 6.325C4.775 7.875 4 9.76667 4 12C4 14.2333 4.775 16.125 6.325 17.675C7.875 19.225 9.76667 20 12 20Z" fill="#800080"/>
</g>
</g>
</svg>
