<svg width="100" height="100" viewBox="0 0 100 100" fill="none" xmlns="http://www.w3.org/2000/svg">
<rect x="2.5" y="2.5" width="95" height="95" rx="47.5" stroke="#009D65" stroke-width="5"/>
<path d="M42.2526 58.5007L66.3151 34.5293C66.9835 33.8609 67.7431 33.5419 68.5938 33.5723C69.4444 33.6027 70.204 33.9521 70.8724 34.6205C71.5408 35.2889 71.875 36.0484 71.875 36.8991C71.875 37.7498 71.5408 38.5094 70.8724 39.1778L44.6224 65.4278C43.954 66.0962 43.1793 66.4304 42.2982 66.4304C41.4171 66.4304 40.6424 66.0962 39.974 65.4278L29.1276 54.5814C28.4592 53.913 28.125 53.1535 28.125 52.3028C28.125 51.4521 28.4592 50.6925 29.1276 50.0241C29.796 49.3557 30.5556 49.0215 31.4062 49.0215C32.2569 49.0215 33.0165 49.3557 33.6849 50.0241L42.2526 58.5007Z" fill="#009D65"/>
</svg>
