<svg width="32" height="32" viewBox="0 0 32 32" fill="none" xmlns="http://www.w3.org/2000/svg">
<g id="Frame 540">
<g id="Vector">
<path d="M15.2393 26.0673C13.6436 26.0673 12.2121 25.7857 10.9449 25.2225C9.67773 24.6358 8.66867 23.8497 7.91773 22.8641C7.36435 22.1143 7.00107 21.3035 6.82791 20.4315C6.73825 19.98 7.10908 19.5905 7.56937 19.5905H10.9779C11.3814 19.5905 11.708 19.8984 11.8577 20.2731C12.039 20.727 12.3449 21.1213 12.7753 21.4561C13.4324 21.9489 14.242 22.1953 15.2041 22.1953C16.1428 22.1953 16.8703 22.0075 17.3865 21.6321C17.9263 21.2566 18.1961 20.7755 18.1961 20.1889C18.1961 19.5553 17.8676 19.0859 17.2105 18.7809C16.5769 18.4523 15.5561 18.1003 14.1481 17.7249C12.6932 17.3729 11.4964 17.0091 10.5577 16.6337C9.64253 16.2582 8.84467 15.6833 8.16413 14.9089C7.50706 14.1345 7.17853 13.0902 7.17853 11.7761C7.17853 10.6966 7.4836 9.71099 8.09373 8.81926C8.72733 7.92753 9.61907 7.22353 10.7689 6.70726C11.9423 6.19099 13.3151 5.93286 14.8873 5.93286C17.2105 5.93286 19.0644 6.51953 20.4489 7.69286C21.6275 8.67163 22.3554 9.94795 22.6328 11.5218C22.7134 11.9791 22.342 12.3745 21.8778 12.3745H18.7507C18.3369 12.3745 18.0069 12.0514 17.8664 11.6622C17.7051 11.2157 17.4278 10.843 17.0345 10.5441C16.4713 10.0747 15.7087 9.84006 14.7465 9.84006C13.8548 9.84006 13.1625 10.0043 12.6697 10.3329C12.2004 10.6614 11.9657 11.119 11.9657 11.7057C11.9657 12.3627 12.2943 12.8673 12.9513 13.2193C13.6084 13.5478 14.6292 13.8881 16.0137 14.2401C17.4217 14.5921 18.5833 14.9558 19.4985 15.3313C20.4137 15.7067 21.1999 16.2934 21.8569 17.0913C22.5375 17.8657 22.8895 18.8982 22.9129 20.1889C22.9129 21.3153 22.5961 22.3243 21.9625 23.2161C21.3524 24.1078 20.4607 24.8118 19.2873 25.3281C18.1375 25.8209 16.7881 26.0673 15.2393 26.0673Z" fill="#1A161A"/>
<path d="M25.1856 24.4673C25.1856 25.3509 24.4693 26.0673 23.5856 26.0673C22.7019 26.0673 21.9856 25.3509 21.9856 24.4673C21.9856 23.5836 22.7019 22.8673 23.5856 22.8673C24.4693 22.8673 25.1856 23.5836 25.1856 24.4673Z" fill="#800080"/>
</g>
</g>
</svg>
