<svg width="32" height="32" viewBox="0 0 32 32" fill="none" xmlns="http://www.w3.org/2000/svg">
<g id="account_circle">
<mask id="mask0_338_2227" style="mask-type:alpha" maskUnits="userSpaceOnUse" x="0" y="0" width="32" height="32">
<rect id="Bounding box" width="32" height="32" fill="#D9D9D9"/>
</mask>
<g mask="url(#mask0_338_2227)">
<path id="account_circle_2" d="M8.03083 23.056C9.16416 22.2151 10.3988 21.551 11.7348 21.0637C13.0706 20.5766 14.4924 20.333 16.0002 20.333C17.5079 20.333 18.9297 20.5766 20.2655 21.0637C21.6015 21.551 22.8362 22.2151 23.9695 23.056C24.7984 22.1449 25.4552 21.0902 25.9398 19.892C26.4245 18.6938 26.6668 17.3963 26.6668 15.9997C26.6668 13.0441 25.6279 10.5275 23.5502 8.44967C21.4724 6.3719 18.9557 5.33301 16.0002 5.33301C13.0446 5.33301 10.5279 6.3719 8.45016 8.44967C6.37239 10.5275 5.3335 13.0441 5.3335 15.9997C5.3335 17.3963 5.57583 18.6938 6.0605 19.892C6.54516 21.0902 7.20194 22.1449 8.03083 23.056ZM16.0005 16.9997C14.7832 16.9997 13.7566 16.5819 12.9208 15.7463C12.0848 14.9106 11.6668 13.884 11.6668 12.6667C11.6668 11.4493 12.0846 10.4228 12.9202 9.58701C13.7559 8.75101 14.7825 8.33301 15.9998 8.33301C17.2172 8.33301 18.2437 8.75079 19.0795 9.58634C19.9155 10.4221 20.3335 11.4487 20.3335 12.666C20.3335 13.8833 19.9157 14.9099 19.0802 15.7457C18.2444 16.5817 17.2178 16.9997 16.0005 16.9997ZM16.0002 28.6663C14.2413 28.6663 12.5913 28.3356 11.0502 27.674C9.50905 27.0125 8.1685 26.1116 7.0285 24.9713C5.88827 23.8313 4.98739 22.4908 4.32583 20.9497C3.66427 19.4086 3.3335 17.7586 3.3335 15.9997C3.3335 14.2408 3.66427 12.5908 4.32583 11.0497C4.98739 9.50856 5.88827 8.16801 7.0285 7.02801C8.1685 5.88779 9.50905 4.9869 11.0502 4.32534C12.5913 3.66379 14.2413 3.33301 16.0002 3.33301C17.7591 3.33301 19.4091 3.66379 20.9502 4.32534C22.4913 4.9869 23.8318 5.88779 24.9718 7.02801C26.1121 8.16801 27.0129 9.50856 27.6745 11.0497C28.3361 12.5908 28.6668 14.2408 28.6668 15.9997C28.6668 17.7586 28.3361 19.4086 27.6745 20.9497C27.0129 22.4908 26.1121 23.8313 24.9718 24.9713C23.8318 26.1116 22.4913 27.0125 20.9502 27.674C19.4091 28.3356 17.7591 28.6663 16.0002 28.6663ZM16.0002 26.6663C17.2035 26.6663 18.3637 26.4728 19.4808 26.0857C20.5979 25.6983 21.5898 25.1569 22.4565 24.4613C21.5898 23.7911 20.6108 23.2689 19.5195 22.8947C18.4279 22.5202 17.2548 22.333 16.0002 22.333C14.7455 22.333 13.5703 22.518 12.4745 22.888C11.3787 23.2582 10.4018 23.7827 9.54383 24.4613C10.4105 25.1569 11.4024 25.6983 12.5195 26.0857C13.6366 26.4728 14.7968 26.6663 16.0002 26.6663ZM16.0002 14.9997C16.6635 14.9997 17.2182 14.7766 17.6642 14.3303C18.1104 13.8843 18.3335 13.3297 18.3335 12.6663C18.3335 12.003 18.1104 11.4483 17.6642 11.0023C17.2182 10.5561 16.6635 10.333 16.0002 10.333C15.3368 10.333 14.7822 10.5561 14.3362 11.0023C13.8899 11.4483 13.6668 12.003 13.6668 12.6663C13.6668 13.3297 13.8899 13.8843 14.3362 14.3303C14.7822 14.7766 15.3368 14.9997 16.0002 14.9997Z" fill="#F2E6F2"/>
</g>
</g>
</svg>
