<svg width="222" height="337" viewBox="0 0 222 337" fill="none" xmlns="http://www.w3.org/2000/svg">
<path fill-rule="evenodd" clip-rule="evenodd" d="M90.9221 48.417C90.9221 48.417 82.6506 59.2268 93.8809 62.0962L90.9221 48.417Z" fill="#19141E"/>
<path d="M106.334 85.5769L106.609 76.0455C106.609 76.0455 94.771 76.9677 92.3006 75.6806C92.3006 75.6806 90.4229 64.0986 92.2082 55.8869L101.928 47.085L117.615 48.2432L119.395 62.4821C120.216 60.0536 127.688 57.0094 129.482 62.4571C131.795 69.4819 118.463 73.1734 118.463 73.1734L119.856 85.6915" fill="#DED0AD"/>
<path d="M124.831 47.7003L128.672 43.7759L126.575 41.7229L123.067 45.3067L122.725 45.1428L123.63 40.0936L120.741 39.5758L120.016 43.6221C113.02 39.3391 107.494 42.6777 107.494 42.6777C107.494 42.6777 105.264 33.2973 99.0914 33.3243C90.2975 33.3623 88.9402 46.9887 88.9402 46.9887C88.9402 46.9887 84.5081 39.5781 81.9878 40.6373C79.4675 41.6969 79.3981 66.3104 114.387 54.3154C114.387 54.3154 111.379 61.1033 119.395 62.4819C119.395 62.4819 120.793 59.5846 125.531 59.4209C125.531 59.4209 132.818 56.4474 124.831 47.7003Z" fill="#19141E"/>
<path opacity="0.4" fill-rule="evenodd" clip-rule="evenodd" d="M106.609 76.0448L114.396 74.3701L106.646 79.6207L106.609 76.0448Z" fill="#4B494E"/>
<path fill-rule="evenodd" clip-rule="evenodd" d="M100.037 61.7031L97.346 68.3012L100.571 68.3424L100.037 61.7031Z" fill="#4B494E"/>
<path fill-rule="evenodd" clip-rule="evenodd" d="M103.253 62.344C103.093 63.2326 103.682 64.0831 104.567 64.2436C105.453 64.4044 106.301 63.8146 106.461 62.926C106.622 62.0375 106.034 61.1869 105.148 61.0264C104.262 60.8656 103.414 61.4555 103.253 62.344" fill="#4B494E"/>
<path fill-rule="evenodd" clip-rule="evenodd" d="M94.7898 62.344C94.6294 63.2326 95.2179 64.0831 96.1039 64.2436C96.9897 64.4044 97.8378 63.8146 97.9978 62.926C98.1582 62.0375 97.57 61.1869 96.684 61.0264C95.798 60.8656 94.9502 61.4555 94.7898 62.344" fill="#4B494E"/>
<path fill-rule="evenodd" clip-rule="evenodd" d="M104.205 69.3848C104.205 69.3848 103.169 71.2716 100.932 71.2269Z" fill="white"/>
<path d="M104.205 69.3848C104.205 69.3848 103.169 71.2716 100.932 71.2269" stroke="#252535" stroke-width="1.30447"/>
<path fill-rule="evenodd" clip-rule="evenodd" d="M174.767 270.925L164.399 262.276L167.418 252.896L189.431 267.696L173.619 298.575C173.619 298.575 172.713 291.128 173.224 282.807C173.577 277.058 174.767 270.925 174.767 270.925ZM69.508 297.711L71.7802 290.386L81.4008 290.895L73.3938 311.011L42.6376 293.192C51.7646 290.43 69.508 297.711 69.508 297.711Z" fill="#922E2E"/>
<path fill-rule="evenodd" clip-rule="evenodd" d="M167.014 264.482L167.562 252.882L180.241 261.574L174.767 270.926L167.014 264.482ZM72.3607 288.371L81.5457 290.855L77.3807 300.995L69.508 297.712L72.3607 288.371Z" fill="#DED0AD"/>
<path d="M127.728 176.612C130.263 168.256 132.054 162.034 132.643 159.316C135.26 147.234 135.254 141.46 135.254 141.021H126.181L92 141.021C92.1861 144.252 91.6474 152.823 92.8649 164.689L66.3243 283.083L63.6459 282.616L61.3158 291.818L90.346 297.612L93.8828 287.888L92.1485 287.586C96.0232 275.923 104.485 250.033 112.695 224.421C113.72 226.127 114.795 227.839 115.924 229.555C131.223 252.821 146.493 266.282 154.858 272.606L153.622 274.374L162.013 279.712L180.467 253.457L172.325 247.623L170.952 249.587C161.021 240.452 141.184 218.973 129.488 184.464C128.704 182.153 128.139 179.491 127.728 176.612V176.612Z" fill="#BB3B3B"/>
<path fill-rule="evenodd" clip-rule="evenodd" d="M92.1486 287.586C100.459 262.571 129.872 172.108 132.643 159.316C135.255 147.259 135.254 141.483 135.254 141.023C135.254 141.022 135.254 141.021 135.254 141.021H98.1707L66.3243 283.082L63.6459 282.615L61.3158 291.818L90.3461 297.611L93.8828 287.888L92.1486 287.586Z" fill="white" fill-opacity="0.1"/>
<path fill-rule="evenodd" clip-rule="evenodd" d="M122.444 83.6372C121.691 84.9535 118.387 89.8198 110.557 90.2802C102.994 90.7211 103.555 86.7172 103.95 85.3782C104.127 85.3298 104.304 85.2808 104.482 85.2314C106.145 84.771 107.915 84.281 110.339 84.0298C116.957 83.3445 117.476 83.2942 122.444 83.6372ZM62.5008 104.866C66.1 111.933 78.7345 135.132 87.7417 131.431C94.4855 128.661 102.559 105.691 102.559 105.691L89.4356 97.881L83.5387 113.666L71.498 100.585C71.9068 97.9931 72.2343 94.6048 71.4192 93.4104C70.0316 91.3773 63.0109 85.1133 63.0109 85.1133L61.7327 95.7265L61.5094 94.8318C61.5096 94.782 61.4976 94.728 61.4723 94.6697L61.4647 94.6529L60.9479 92.5819C61.1649 92.4724 61.2536 92.3163 61.1598 92.1003C61.0837 91.925 60.9177 91.7328 60.6856 91.5308L58.921 84.46C58.921 84.46 58.3419 84.7175 57.4929 85.1035C56.1273 84.8219 51.1822 88.1836 51.1072 88.2347L51.1062 88.2353C50.0991 88.8857 52.4942 99.6347 54.4395 101.632C55.8234 103.052 60.1298 104.277 62.5008 104.866ZM142.899 152.797L142.095 154.323C142.095 154.323 141.368 155.57 140.606 157.747C140.324 158.551 140.19 159.24 140.05 159.962C139.81 161.192 139.552 162.518 138.513 164.672C136.643 168.552 139.988 166.952 141.188 165.259C141.582 164.702 141.791 164.063 141.992 163.45C142.268 162.607 142.529 161.813 143.231 161.349C143.267 161.405 143.306 161.463 143.348 161.527C143.796 162.194 144.612 163.41 145.086 168.524C145.179 169.528 144.724 172.785 144.724 172.785C144.723 172.858 144.722 172.936 144.72 173.02L144.72 173.02C144.702 174.055 144.671 175.819 145.7 176.107C145.975 176.184 146.333 175.88 146.333 175.88C146.333 175.88 146.226 177.153 147.361 177.407C147.807 177.506 148.694 174.757 148.694 174.757C148.694 174.757 148.829 176.153 149.677 176.308C149.917 176.352 152.747 168.386 152.747 168.386L152.577 170.185L152.201 172.028C152.201 172.028 152.231 173.02 153.028 173.195C153.344 173.265 153.952 171.611 154.521 169.664C155.406 166.635 155.388 164.359 155.127 162.096C155.064 161.547 155.019 161.071 154.978 160.634C154.814 158.894 154.708 157.769 153.735 155.088C153.59 154.687 153.394 154.227 153.176 153.753C153.844 147.987 155.726 131.109 155.496 125.928C155.216 119.643 148.557 105.691 148.557 105.691L135.039 113.249L142.49 126.825L142.899 152.797Z" fill="#DED0AD"/>
<path fill-rule="evenodd" clip-rule="evenodd" d="M135.446 141.18H92.0759L90.4867 114.41L82.8746 109.973L88.2079 97.7118L88.2548 97.7209C88.477 97.2754 88.7208 96.8128 88.9876 96.3325C92.2973 90.3704 97.959 87.0083 103.95 85.3776C104.047 85.351 104.086 85.3322 104.09 85.3385C104.102 85.3543 103.894 85.5291 103.835 86.1407C103.752 86.9953 104.021 88.1553 104.305 88.508C104.975 89.3395 105.987 89.8116 106.394 89.9226C106.801 90.0336 107.123 90.0983 107.483 90.1698C107.736 90.22 109.171 90.3262 109.418 90.3133C111.461 90.2069 112.462 90.1123 113.748 89.8069C114.203 89.6987 114.674 89.5755 115.232 89.3405C115.337 89.2964 115.452 89.2493 115.575 89.1988C116.178 88.9507 116.982 88.6204 117.799 88.1641C118.662 87.6817 119.542 87.0455 120.179 86.3956C120.24 86.3328 120.3 86.2718 120.358 86.2125C121.027 85.5312 121.483 85.0664 121.799 84.6003C122.013 84.2849 122.094 84.18 122.141 84.1185C122.17 84.0811 122.187 84.0598 122.213 84.017C122.283 83.9037 122.344 83.8039 122.361 83.7369C122.379 83.6648 122.313 83.6341 122.315 83.6268C122.317 83.6221 122.347 83.627 122.444 83.6366C125.496 83.9381 128.777 84.726 132.355 86.3956C143.42 91.557 149.887 104.525 149.887 104.525L136.174 114.78L135.446 141.18Z" fill="#D76767"/>
<path opacity="0.200521" d="M136.174 114.779L132.696 117.133L124.334 107.424" stroke="black" stroke-width="1.63059"/>
<path d="M56.7555 97.6162L57.3612 100.58H67.1738L62.5452 76.9814H52.7326C52.987 78.2783 53.5861 81.3326 54.5299 86.1446L56.4594 85.2528L57.0603 85.0867L57.5334 85.1132L57.7385 85.2528V85.8262L55.6409 88.8344L57.2455 89.5315L59.7143 90.823L60.4276 91.3156L60.7039 91.5708L60.9296 91.7724L61.0734 91.9455L61.1598 92.1003L61.1969 92.3013L61.1598 92.3903L61.1169 92.4587L61.0545 92.5205L60.2453 92.8056L58.3994 92.3013H56.575L59.0101 92.8056L60.6147 93.763L61.1598 94.2755L61.4679 94.6521V94.9966L60.9296 95.2382L57.5334 94.8494L58.658 95.4595L59.4032 95.9203L60.0863 96.2718L60.6147 96.9515V97.287L60.4276 97.484L59.9532 97.7355H59.2299H57.7728L56.7555 97.6162Z" fill="#D76767"/>
<path fill-rule="evenodd" clip-rule="evenodd" d="M67.1751 100.58H68.7988L64.1702 76.9814H62.5468L67.1751 100.58Z" fill="#020101"/>
<path fill-rule="evenodd" clip-rule="evenodd" d="M60.8569 79.7216C60.9925 80.4109 61.3946 80.9131 61.755 80.8428C62.115 80.7727 62.2973 80.1571 62.1617 79.4678C62.026 78.7782 61.6239 78.2763 61.2635 78.3464C60.9032 78.4167 60.7212 79.0324 60.8569 79.7216" fill="#020101"/>
</svg>
